{
  "accessors": [
    {
      "bufferView": 2,
      "componentType": 5126,
      "count": 8945,
      "max": [
        2.2699809074401855,
        10.326225280761719,
        1.9031360149383545
      ],
      "min": [
        -2.3248989582061768,
        0.6386799812316895,
        -1.892598032951355
      ],
      "type": "VEC3"
    },
    {
      "bufferView": 2,
      "byteOffset": 107340,
      "componentType": 5126,
      "count": 8945,
      "max": [
        1.0,
        1.0,
        1.0
      ],
      "min": [
        -1.0,
        -1.0,
        -1.0
      ],
      "type": "VEC3"
    },
    {
      "bufferView": 3,
      "componentType": 5126,
      "count": 8945,
      "max": [
        1.0,
        0.9993864297866821,
        0.9999980330467224,
        1.0
      ],
      "min": [
        -1.0,
        -1.0,
        -1.0,
        -1.0
      ],
      "type": "VEC4"
    },
    {
      "bufferView": 1,
      "componentType": 5126,
      "count": 8945,
      "max": [
        0.9900000095367432,
        1.0
      ],
      "min": [
        0.0,
        0.09002900123596191
      ],
      "type": "VEC2"
    },
    {
      "bufferView": 0,
      "componentType": 5125,
      "count": 49548,
      "type": "SCALAR"
    },
    {
      "bufferView": 2,
      "byteOffset": 214680,
      "componentType": 5126,
      "count": 468,
      "max": [
        0.3442069888114929,
        3.5301129817962646,
        0.30755001306533813
      ],
      "min": [
        -0.3442069888114929,
        2.77072811126709,
        -0.3808650076389313
      ],
      "type": "VEC3"
    },
    {
      "bufferView": 2,
      "byteOffset": 220296,
      "componentType": 5126,
      "count": 468,
      "max": [
        1.0,
        1.0,
        1.0
      ],
      "min": [
        -1.0,
        -1.0,
        -1.0
      ],
      "type": "VEC3"
    },
    {
      "bufferView": 3,
      "byteOffset": 143120,
      "componentType": 5126,
      "count": 468,
      "max": [
        1.0,
        1.0,
        1.0,
        1.0
      ],
      "min": [
        -1.0,
        -1.0,
        -1.0,
        -1.0
      ],
      "type": "VEC4"
    },
    {
      "bufferView": 1,
      "byteOffset": 71560,
      "componentType": 5126,
      "count": 468,
      "max": [
        0.65625,
        1.0
      ],
      "min": [
        0.34375,
        0.0
      ],
      "type": "VEC2"
    },
    {
      "bufferView": 0,
      "byteOffset": 198192,
      "componentType": 5125,
      "count": 960,
      "type": "SCALAR"
    },
    {
      "bufferView": 2,
      "byteOffset": 225912,
      "componentType": 5126,
      "count": 89,
      "max": [
        0.18306200206279755,
        4.429180145263672,
        0.03855200111865997
      ],
      "min": [
        -0.23917600512504578,
        3.2571280002593994,
        -0.022412000223994255
      ],
      "type": "VEC3"
    },
    {
      "bufferView": 2,
      "byteOffset": 226980,
      "componentType": 5126,
      "count": 89,
      "max": [
        0.9955694675445557,
        0.983676016330719,
        1.0
      ],
      "min": [
        -0.8627963066101074,
        -1.0,
        -1.0
      ],
      "type": "VEC3"
    },
    {
      "bufferView": 3,
      "byteOffset": 150608,
      "componentType": 5126,
      "count": 89,
      "max": [
        1.0,
        0.957169234752655,
        0.8821324706077576,
        1.0
      ],
      "min": [
        -0.9182173609733582,
        -0.9960198998451233,
        -0.9990747570991516,
        1.0
      ],
      "type": "VEC4"
    },
    {
      "bufferView": 1,
      "byteOffset": 75304,
      "componentType": 5126,
      "count": 89,
      "max": [
        0.875,
        1.0
      ],
      "min": [
        0.125,
        0.0
      ],
      "type": "VEC2"
    },
    {
      "bufferView": 0,
      "byteOffset": 202032,
      "componentType": 5125,
      "count": 384,
      "type": "SCALAR"
    }
  ],
  "asset": {
    "extras": {
      "author": "Scritta (https://sketchfab.com/scritta)",
      "license": "CC-BY-4.0 (http://creativecommons.org/licenses/by/4.0/)",
      "source": "https://sketchfab.com/3d-models/old-kerosene-oil-lamp-free-for-download-ed58301fd5854d9ab6341f9c86c97008",
      "title": "Old kerosene / oil lamp - free for download"
    },
    "generator": "Sketchfab-12.65.0",
    "version": "2.0"
  },
  "bufferViews": [
    {
      "buffer": 0,
      "byteLength": 203568,
      "name": "floatBufferViews",
      "target": 34963
    },
    {
      "buffer": 0,
      "byteLength": 76016,
      "byteOffset": 203568,
      "byteStride": 8,
      "name": "floatBufferViews",
      "target": 34962
    },
    {
      "buffer": 0,
      "byteLength": 228048,
      "byteOffset": 279584,
      "byteStride": 12,
      "name": "floatBufferViews",
      "target": 34962
    },
    {
      "buffer": 0,
      "byteLength": 152032,
      "byteOffset": 507632,
      "byteStride": 16,
      "name": "floatBufferViews",
      "target": 34962
    }
  ],
  "buffers": [
    {
      "byteLength": 659664,
      "uri": "scene.bin"
    }
  ],
  "images": [
    {
      "uri": "textures/lambert1_baseColor.png"
    },
    {
      "uri": "textures/lambert1_normal.png"
    }
  ],
  "materials": [
    {
      "alphaMode": "BLEND",
      "doubleSided": true,
      "name": "lambert1",
      "normalTexture": {
        "index": 1
      },
      "pbrMetallicRoughness": {
        "baseColorTexture": {
          "index": 0
        },
        "roughnessFactor": 0.20576515437671972
      }
    }
  ],
  "meshes": [
    {
      "name": "Lamp_Low_Poly_OBJ_UV:Lampo_lambert1_0",
      "primitives": [
        {
          "attributes": {
            "NORMAL": 1,
            "POSITION": 0,
            "TANGENT": 2,
            "TEXCOORD_0": 3
          },
          "indices": 4,
          "material": 0,
          "mode": 4
        }
      ]
    },
    {
      "name": "Lamp_Low_Poly_OBJ_UV:pCylinder1_lambert1_0",
      "primitives": [
        {
          "attributes": {
            "NORMAL": 6,
            "POSITION": 5,
            "TANGENT": 7,
            "TEXCOORD_0": 8
          },
          "indices": 9,
          "material": 0,
          "mode": 4
        }
      ]
    },
    {
      "name": "Lamp_Low_Poly_OBJ_UV:pCube1_lambert1_0",
      "primitives": [
        {
          "attributes": {
            "NORMAL": 11,
            "POSITION": 10,
            "TANGENT": 12,
            "TEXCOORD_0": 13
          },
          "indices": 14,
          "material": 0,
          "mode": 4
        }
      ]
    }
  ],
  "nodes": [
    {
      "children": [
        1
      ],
      "matrix": [
        1.0,
        0.0,
        0.0,
        0.0,
        0.0,
        2.220446049250313e-16,
        -1.0,
        0.0,
        0.0,
        1.0,
        2.220446049250313e-16,
        0.0,
        0.0,
        0.0,
        0.0,
        1.0
      ],
      "name": "Sketchfab_model"
    },
    {
      "children": [
        2
      ],
      "matrix": [
        1.0,
        0.0,
        0.0,
        0.0,
        0.0,
        0.0,
        1.0,
        0.0,
        0.0,
        -1.0,
        0.0,
        0.0,
        0.0,
        0.0,
        0.0,
        1.0
      ],
      "name": "37e09b07b40e4a5ca670468000224c60.fbx"
    },
    {
      "children": [
        3,
        5,
        7
      ],
      "name": "RootNode"
    },
    {
      "children": [
        4
      ],
      "name": "Lamp_Low_Poly_OBJ_UV:Lampo"
    },
    {
      "mesh": 0,
      "name": "Lamp_Low_Poly_OBJ_UV:Lampo_lambert1_0"
    },
    {
      "children": [
        6
      ],
      "name": "Lamp_Low_Poly_OBJ_UV:pCylinder1"
    },
    {
      "mesh": 1,
      "name": "Lamp_Low_Poly_OBJ_UV:pCylinder1_lambert1_0"
    },
    {
      "children": [
        8
      ],
      "name": "Lamp_Low_Poly_OBJ_UV:pCube1"
    },
    {
      "mesh": 2,
      "name": "Lamp_Low_Poly_OBJ_UV:pCube1_lambert1_0"
    }
  ],
  "samplers": [
    {
      "magFilter": 9729,
      "minFilter": 9987,
      "wrapS": 10497,
      "wrapT": 10497
    }
  ],
  "scene": 0,
  "scenes": [
    {
      "name": "Sketchfab_Scene",
      "nodes": [
        0
      ]
    }
  ],
  "textures": [
    {
      "sampler": 0,
      "source": 0
    },
    {
      "sampler": 0,
      "source": 1
    }
  ]
}
